<?xml version="1.0" standalone="no"?><!DOCTYPE svg PUBLIC "-//W3C//DTD SVG 1.1//EN" "http://www.w3.org/Graphics/SVG/1.1/DTD/svg11.dtd"><svg t="1609322091276" class="icon" viewBox="0 0 2048 1024" version="1.1" xmlns="http://www.w3.org/2000/svg" p-id="9741" xmlns:xlink="http://www.w3.org/1999/xlink" width="96" height="48"><defs><style type="text/css"></style></defs><path d="M1755.428571 0a292.571429 292.571429 0 0 1 292.571429 292.571429v438.857142a292.571429 292.571429 0 0 1-292.571429 292.571429H0V292.571429a292.571429 292.571429 0 0 1 292.571429-292.571429h1462.857142zM393.289143 273.408H318.902857v506.88h80.969143V429.348571l230.4 350.866286h74.386286v-506.88H623.689143v350.208l-230.4-350.208z m731.355428 0h-327.826285v506.88h327.826285v-69.12H877.714286v-152.137143h210.651428v-68.388571H877.714286V342.528h246.857143v-69.12z m124.342858 0h-84.845715l132.315429 506.88h71.094857l100.717714-348.891429 100.717715 348.891429h71.094857l132.315428-506.88H1687.405714l-86.308571 354.742857-99.986286-354.742857h-65.828571l-100.059429 354.742857-86.308571-354.742857z" p-id="9742" fill="#eb4c12"></path></svg>